<?xml version="1.0" standalone="no"?>
<!DOCTYPE svg PUBLIC "-//W3C//DTD SVG 20010904//EN"
 "http://www.w3.org/TR/2001/REC-SVG-20010904/DTD/svg10.dtd">
<svg version="1.0" xmlns="http://www.w3.org/2000/svg"
 width="580.000000pt" height="580.000000pt" viewBox="0 0 580.000000 580.000000"
 preserveAspectRatio="xMidYMid meet">

<g transform="translate(0.000000,580.000000) scale(0.100000,-0.100000)"
fill="#000000" stroke="none">
<path d="M2588 5625 c-3 -3 -63 -15 -132 -25 -1120 -172 -2024 -984 -2285
-2052 -58 -238 -76 -388 -76 -638 1 -162 6 -257 18 -339 51 -329 123 -565 257
-836 145 -295 292 -500 524 -730 155 -154 253 -235 435 -356 343 -228 764
-387 1169 -440 86 -11 186 -25 222 -31 120 -19 434 -1 670 38 1159 194 2080
1087 2274 2204 68 388 64 481 -21 562 -61 59 -169 76 -242 38 -21 -10 -87 -69
-147 -131 -124 -127 -313 -276 -326 -256 -4 6 -8 20 -8 29 0 29 -38 121 -75
183 l-36 59 11 92 c21 189 4 397 -42 512 -20 49 -22 66 -15 127 15 142 -15
293 -75 375 -18 24 -45 74 -59 111 -65 168 -174 307 -277 355 -69 31 -68 31
-127 73 -25 18 -72 42 -102 53 -51 18 -57 18 -73 3 -10 -9 -21 -34 -25 -55
l-6 -38 -71 29 c-95 39 -223 79 -254 79 l-24 0 25 -38 c13 -20 36 -66 50 -100
l26 -64 -41 -44 c-65 -71 -109 -200 -110 -321 0 -49 2 -53 46 -92 26 -22 63
-48 84 -57 l38 -17 -21 -56 c-15 -39 -22 -84 -23 -148 l-2 -92 -45 -58 c-238
-310 -385 -687 -375 -960 1 -51 0 -93 -4 -93 -16 0 -149 65 -232 114 -241 142
-467 367 -608 606 -163 276 -237 569 -225 899 16 433 172 789 490 1113 105
108 122 140 115 224 -6 74 -41 122 -116 162 -55 30 -137 44 -154 27z"/>
</g>
</svg>
